<svg id="Address" xmlns="http://www.w3.org/2000/svg" width="50.807" height="52.788" viewBox="0 0 50.807 52.788">
  <path id="Path_2793" data-name="Path 2793" d="M1499.085-1527.712a24.174,24.174,0,0,0,11.686,32.128h0a24.175,24.175,0,0,0,32.128-11.687h0v-.009a24.175,24.175,0,0,0-11.688-32.128,24.173,24.173,0,0,0-32.126,11.686v.011Z" transform="translate(-1495.499 1544.79)" fill="#fff"/>
  <path id="Path_2794" data-name="Path 2794" d="M1525.731-1513.732c-1.231,1.713,5.231,6.946,7.384,5.934,3.648-1.713,6.022-5.274,6.022-6.593s-1.715-3.87-7.56.088C1529.949-1513.16,1527-1515.489,1525.731-1513.732Zm3.427-26.723a.157.157,0,0,1-.088-.044l.088,4.66a3.033,3.033,0,0,1-1.8,2.768c-2.417,1.055-4.836.483-5.846,3.252-.835,2.065,1.362,7.735,4.045,7.735,3.383,0,5.011-6.813,6.022-6.813.659,0,1.669,2.066,2.856,3.6a4.125,4.125,0,0,0,3.34,1.627h2.241S1536.982-1537.643,1529.158-1540.455Zm-24.131,40.877h0a5.316,5.316,0,0,0,6.11.615,28.464,28.464,0,0,0,2.5-1.582,5.586,5.586,0,0,0,1.539-1.669,11.782,11.782,0,0,0,1.231-2.593c1.713-6.594-4-6.857-4.177-8.307-.176-1.627,1.934-2.856,3.208-4.133a3.975,3.975,0,0,0,1.01-4.394c-2.109-3.779-7.12-1.8-7.6,2.24a11.567,11.567,0,0,1-2.944,6.155,2.751,2.751,0,0,1-3.865-.433,2.762,2.762,0,0,1-.443-.8c-.748-2.022,1.843-2.77,1.45-5.363-.088-.708-.834-1.055-1.757-1.187l-4.352.176c-.044,1.011-.132,2.066-.132,3.165a23.872,23.872,0,0,0,4.791,14.417,28.244,28.244,0,0,1,3.43,3.692Z" transform="translate(-1495.5 1544.939)" fill="#1893f7"/>
  <path id="Path_2795" data-name="Path 2795" d="M1521.128-1491.874a25,25,0,0,1-10.774-2.417,25.446,25.446,0,0,1-12.324-33.81l.016-.034a25.346,25.346,0,0,1,20.006-14.557,1.3,1.3,0,0,1,1.449,1.126v.017a1.322,1.322,0,0,1-1.143,1.45,22.758,22.758,0,0,0-17.932,13.011,22.906,22.906,0,0,0,11.032,30.373,22.489,22.489,0,0,0,17.449.746,22.565,22.565,0,0,0,12.879-11.822,22.246,22.246,0,0,0,2.021-7.429,1.3,1.3,0,0,1,1.4-1.191l.051,0a1.331,1.331,0,0,1,1.187,1.451,24.646,24.646,0,0,1-2.289,8.271,25.38,25.38,0,0,1-14.373,13.183A23.459,23.459,0,0,1,1521.128-1491.874Z" transform="translate(-1495.646 1544.662)" fill="#444b54"/>
  <path id="Path_2796" data-name="Path 2796" d="M1529.417-1544.443a12.449,12.449,0,0,0-12.308,12.263c-.176,6.38,5.934,14.769,9.582,19.164a3.579,3.579,0,0,0,2.724,1.277,3.649,3.649,0,0,0,2.726-1.277c3.646-4.44,9.8-12.791,9.58-19.164A12.447,12.447,0,0,0,1529.417-1544.443Z" transform="translate(-1492.946 1544.443)" fill="#444b54"/>
  <path id="Path_2797" data-name="Path 2797" d="M1528.533-1537.415a4.395,4.395,0,0,0-4.4,4.394h0a4.4,4.4,0,0,0,4.4,4.4h0a4.394,4.394,0,0,0,4.394-4.4h0a4.393,4.393,0,0,0-4.394-4.394Z" transform="translate(-1492.061 1545.327)" fill="#fff"/>
</svg>
