<svg id="Component_9_1" data-name="Component 9 – 1" xmlns="http://www.w3.org/2000/svg" width="56.3" height="58.741" viewBox="0 0 56.3 58.741">
  <g id="Address" transform="translate(0 12.528)">
    <path id="Path_2793" data-name="Path 2793" d="M1498.8-1529.452a21.163,21.163,0,0,0,10.23,28.126h0a21.163,21.163,0,0,0,28.126-10.231h0v-.008a21.164,21.164,0,0,0-10.232-28.126,21.161,21.161,0,0,0-28.124,10.23v.01Z" transform="translate(-1495.662 1544.403)" fill="#fff"/>
    <path id="Path_2794" data-name="Path 2794" d="M1522.127-1517.066c-1.077,1.5,4.579,6.081,6.464,5.195,3.193-1.5,5.272-4.617,5.272-5.771s-1.5-3.387-6.618.077C1525.82-1516.565,1523.243-1518.6,1522.127-1517.066Zm3-23.394a.137.137,0,0,1-.077-.039l.077,4.079a2.655,2.655,0,0,1-1.577,2.424c-2.116.923-4.233.423-5.118,2.847-.731,1.807,1.192,6.772,3.541,6.772,2.962,0,4.387-5.965,5.272-5.965.577,0,1.461,1.808,2.5,3.155a3.612,3.612,0,0,0,2.924,1.424h1.961S1531.977-1538,1525.127-1540.46ZM1504-1504.676h0a4.654,4.654,0,0,0,5.349.538,24.942,24.942,0,0,0,2.193-1.385,4.891,4.891,0,0,0,1.347-1.461,10.312,10.312,0,0,0,1.077-2.27c1.5-5.772-3.5-6-3.656-7.272-.154-1.424,1.693-2.5,2.809-3.618a3.48,3.48,0,0,0,.884-3.847c-1.846-3.308-6.233-1.578-6.657,1.961a10.126,10.126,0,0,1-2.577,5.388,2.408,2.408,0,0,1-3.383-.379,2.419,2.419,0,0,1-.388-.7c-.654-1.77,1.613-2.425,1.269-4.7-.077-.62-.73-.923-1.539-1.039l-3.81.154c-.038.885-.115,1.809-.115,2.771a20.9,20.9,0,0,0,4.194,12.621,24.725,24.725,0,0,1,3,3.232Z" transform="translate(-1495.662 1544.386)" fill="#1893f7"/>
    <path id="Path_2795" data-name="Path 2795" d="M1517.954-1498.206a21.89,21.89,0,0,1-9.432-2.116,22.277,22.277,0,0,1-10.789-29.6l.014-.029a22.189,22.189,0,0,1,17.514-12.744,1.137,1.137,0,0,1,1.268.986v.015a1.157,1.157,0,0,1-1,1.27,19.923,19.923,0,0,0-15.7,11.39,20.052,20.052,0,0,0,9.658,26.59,19.687,19.687,0,0,0,15.276.653,19.754,19.754,0,0,0,11.275-10.349,19.479,19.479,0,0,0,1.769-6.5,1.139,1.139,0,0,1,1.226-1.043l.044,0a1.165,1.165,0,0,1,1.039,1.27,21.579,21.579,0,0,1-2,7.241,22.219,22.219,0,0,1-12.583,11.541A20.537,20.537,0,0,1,1517.954-1498.206Z" transform="translate(-1495.646 1544.418)" fill="#444b54"/>
  </g>
  <g id="Group_8965" data-name="Group 8965" transform="translate(-3200.67 -260.433)">
    <circle id="Ellipse_1403" data-name="Ellipse 1403" cx="16.929" cy="16.929" r="16.929" transform="translate(3223.111 263.123)" fill="#444b54"/>
    <text id="_" data-name="@" transform="translate(3240.474 286.433)" fill="#fff" font-size="25" font-family="Manrope-Medium, Manrope" font-weight="500"><tspan x="-11.337" y="0">@</tspan></text>
  </g>
</svg>
