<svg xmlns="http://www.w3.org/2000/svg" width="98.243" height="106.984" viewBox="0 0 98.243 106.984">
  <g id="Group_9132" data-name="Group 9132" transform="translate(-3542.6 -3984.842)">
    <path id="Path_5366" data-name="Path 5366" d="M146.05,204h44.3c.362.263.744.5,1.084.793,6.576,5.594,13.133,11.209,19.732,16.775a3.611,3.611,0,0,1,1.4,3.048c-.032,15.144-.006,30.288-.027,45.432a1.554,1.554,0,0,0,.953,1.614c3.783,1.994,7.5,4.115,11.311,6.056a5.381,5.381,0,0,1,3.179,5.464,33.726,33.726,0,0,1-5.237,16.836c-2.842,4.677-6.3,8.747-11.5,10.966h-1.672a54.283,54.283,0,0,1-4.7-3.006,4.094,4.094,0,0,0-2.731-.94q-32.284.028-64.569.008a10.917,10.917,0,0,1-2.284-.151,6.962,6.962,0,0,1-5.541-7.227q-.005-38.862,0-77.724c0-4.508,2.942-7.46,7.44-7.487.993-.006,1.987,0,3.022,0,0-1.313-.053-2.463.01-3.607a6.878,6.878,0,0,1,4.278-6.28C145,204.341,145.533,204.187,146.05,204Zm48.5,88.387c-.114-.435-.229-.761-.283-1.1-.43-2.635-.913-5.263-1.252-7.91-.346-2.706.839-4.54,3.305-5.777,3.76-1.886,7.418-3.978,11.142-5.937a1.473,1.473,0,0,0,.906-1.528q-.048-21.626-.041-43.251c0-.3-.033-.607-.055-1h-1.188c-3.657,0-7.314.032-10.971-.009-5.088-.056-8.47-3.508-8.482-8.6-.006-2.682,0-5.363,0-8.044,0-.33-.029-.66-.046-1.033H148.066c-2.677,0-3.653.973-3.653,3.645q0,12.9,0,25.8,0,25.7,0,51.4c0,2.247,1.094,3.327,3.334,3.33q4.441.006,8.881,0c2.125,0,4.25-.034,6.373.009a2.087,2.087,0,0,1,2,2.9,2.191,2.191,0,0,1-2.283,1.3c-5.12-.018-10.239,0-15.359-.015a7.477,7.477,0,0,1-1.554-.143c-3.465-.749-5.6-3.525-5.6-7.294q-.008-34.58-.008-69.161v-1.321c-1.083,0-2.05-.01-3.017,0-2.12.026-3.22,1.118-3.231,3.231-.013,2.473,0,4.945,0,7.418q0,35.1,0,70.205,0,3.322,3.226,3.327,30.98.007,61.96,0a5.837,5.837,0,0,0,.71-.081c-1.056-1.811-2.1-3.535-3.067-5.3a1.4,1.4,0,0,0-1.425-.884c-4.388.037-8.777.02-13.165.009-1.513,0-2.473-.827-2.478-2.084a2.186,2.186,0,0,1,2.457-2.12c3.169-.009,6.338,0,9.508,0Zm29.245-8.868c-.069-.755.163-1.487-.777-1.98-4-2.1-7.961-4.287-11.955-6.406a1.388,1.388,0,0,0-1.121-.024c-4.026,2.132-8.024,4.318-12.045,6.46a1.122,1.122,0,0,0-.683,1.246,43.09,43.09,0,0,0,.718,5.78c1.711,6.628,4.9,12.426,10.362,16.722,2.378,1.871,2.009,1.9,4.306.026C219.486,299.714,222.964,292.273,223.8,283.519ZM191.83,210.667c0,2.408-.008,4.554,0,6.7a3.908,3.908,0,0,0,4.2,4.26c2.539.026,5.078.015,7.618.012a8.07,8.07,0,0,0,.915-.122c-2.867-2.448-5.586-4.771-8.307-7.091C194.854,213.231,193.45,212.043,191.83,210.667Z" transform="translate(3412.851 3780.842)" fill="#1893f7"/>
    <path id="Path_5367" data-name="Path 5367" d="M205.423,303.276h-2.875c-3.169,0-6.339-.011-9.508,0a2.186,2.186,0,0,0-2.457,2.12c.005,1.257.965,2.08,2.478,2.084,4.388.011,8.777.028,13.165-.01a1.4,1.4,0,0,1,1.425.884c.965,1.768,2.012,3.491,3.067,5.3a5.838,5.838,0,0,1-.71.081q-30.98.006-61.96,0-3.228,0-3.226-3.327,0-35.1,0-70.206c0-2.473-.011-4.945,0-7.417.011-2.113,1.111-3.205,3.231-3.231.967-.012,1.934,0,3.017,0v1.321q0,34.58.008,69.161c0,3.77,2.132,6.546,5.6,7.294a7.477,7.477,0,0,0,1.554.143c5.12.01,10.239,0,15.359.015a2.191,2.191,0,0,0,2.283-1.3,2.087,2.087,0,0,0-2-2.9c-2.124-.043-4.249-.009-6.373-.009q-4.441,0-8.881,0c-2.24,0-3.333-1.083-3.334-3.33q-.005-25.7,0-51.4,0-12.9,0-25.8c0-2.672.977-3.645,3.653-3.645h39.515c.017.372.045.7.046,1.033,0,2.681,0,5.363,0,8.044.012,5.088,3.395,8.541,8.482,8.6,3.657.04,7.314.008,10.971.009h1.188c.023.393.055.7.055,1q.014,21.626.041,43.252a1.473,1.473,0,0,1-.906,1.528c-3.725,1.959-7.382,4.051-11.142,5.937-2.467,1.237-3.652,3.071-3.305,5.777.339,2.646.822,5.275,1.252,7.91C205.195,302.515,205.309,302.841,205.423,303.276Zm-19.071-48.819c-1.952.814-2.708,1.789-2.714,3.581q-.022,6.947,0,13.895a3.411,3.411,0,0,0,3.569,3.541c1.288.021,2.577,0,3.866,0q8.672,0,17.344,0c2.082,0,3.657-1.287,3.681-3.2.062-4.874.039-9.75,0-14.625a2.955,2.955,0,0,0-1.865-2.8,1.3,1.3,0,0,1-.9-1.367,11.507,11.507,0,0,0-22.988.97Zm-7.5,40.919v0q1.881,0,3.761,0c3.482,0,6.964.007,10.446-.014a2.091,2.091,0,0,0,2.312-2.414c-.16-1.144-1.058-1.786-2.544-1.787q-10.185-.006-20.371,0c-2.577,0-5.154,0-7.73,0a2.172,2.172,0,0,0-2.134,1.226c-.724,1.471.356,2.978,2.157,2.983C169.454,295.386,174.155,295.376,178.856,295.376ZM177.924,227c-4.319,0-8.637-.009-12.956.013a3.711,3.711,0,0,0-1.51.288,2.011,2.011,0,0,0-1,2.3,2.154,2.154,0,0,0,2.383,1.6q12.9.011,25.807.007c1.585,0,2.575-.814,2.592-2.094S192.25,227,190.671,227Q184.3,226.995,177.924,227Zm-3.135,12.823q-4.8,0-9.605,0a5.81,5.81,0,0,0-1.14.085,2.065,2.065,0,0,0,.049,4.062,6.351,6.351,0,0,0,1.143.074q9.448.006,18.9,0a5.958,5.958,0,0,0,1.141-.083,2.062,2.062,0,0,0,.05-4.038,5.847,5.847,0,0,0-1.243-.1Q179.435,239.816,174.789,239.824Zm-3.244,38.529v.006c-2.261,0-4.522-.011-6.783,0a2.126,2.126,0,0,0-2.383,2.059,2.162,2.162,0,0,0,2.341,2.133q6.782.028,13.565,0a2.145,2.145,0,0,0,2.374-2.093c.017-1.27-.934-2.1-2.436-2.108C176,278.346,173.772,278.352,171.546,278.352Zm-1.164-8.651c1.946,0,3.893.019,5.839-.006a2.116,2.116,0,0,0,2.341-2.1,2.14,2.14,0,0,0-2.363-2.1q-5.735-.035-11.47,0a2.168,2.168,0,0,0-2.349,2.126,2.135,2.135,0,0,0,2.371,2.08C166.627,269.72,168.5,269.7,170.381,269.7Zm.129-12.808v-.005c1.877,0,3.754.011,5.632,0a2.157,2.157,0,0,0,2.419-2.144,2.128,2.128,0,0,0-2.389-2.053q-5.684-.016-11.368,0a2.147,2.147,0,0,0-2.423,2.129,2.179,2.179,0,0,0,2.393,2.073C166.686,256.9,168.6,256.893,170.51,256.893Zm14.883,48.481a2.065,2.065,0,0,0-2.116-2.088,2.149,2.149,0,0,0-2.074,2.056,2.118,2.118,0,0,0,2.1,2.127A2.04,2.04,0,0,0,185.393,305.374Z" transform="translate(3401.979 3769.953)" fill="#e8e5e5"/>
    <path id="Path_5368" data-name="Path 5368" d="M398.459,467.366c-.832,8.754-4.311,16.195-11.195,21.824-2.3,1.878-1.927,1.845-4.306-.026-5.462-4.3-8.651-10.094-10.362-16.722a43.083,43.083,0,0,1-.718-5.78,1.122,1.122,0,0,1,.683-1.246c4.021-2.142,8.019-4.328,12.045-6.46a1.388,1.388,0,0,1,1.121.024c3.994,2.119,7.951,4.306,11.955,6.406C398.622,465.878,398.39,466.611,398.459,467.366ZM383.4,474.608c-.44-.412-1.013-.969-1.608-1.5-1.131-1.013-2.368-1.033-3.227-.068-.845.949-.729,2.112.338,3.135.9.867,1.833,1.708,2.743,2.568,1.658,1.567,2.574,1.564,4.138-.038q3.246-3.322,6.486-6.651c.145-.15.3-.3.427-.457a2.121,2.121,0,0,0-.084-2.927,2.081,2.081,0,0,0-2.919,0c-.365.321-.679.7-1.034,1.032C386.937,471.315,385.207,472.924,383.4,474.608Z" transform="translate(3238.189 3596.995)" fill="#f5ef9f"/>
    <path id="Path_5369" data-name="Path 5369" d="M352.572,227.93c1.62,1.376,3.024,2.564,4.425,3.758,2.721,2.32,5.439,4.643,8.307,7.091a8.082,8.082,0,0,1-.915.122c-2.539,0-5.079.014-7.618-.012a3.908,3.908,0,0,1-4.2-4.26C352.564,232.484,352.572,230.338,352.572,227.93Z" transform="translate(3252.109 3763.579)" fill="#f0ecdf"/>
    <path id="Path_5370" data-name="Path 5370" d="M286.836,315.415a11.507,11.507,0,0,1,22.988-.97,1.3,1.3,0,0,0,.9,1.367,2.955,2.955,0,0,1,1.865,2.8c.035,4.875.058,9.75,0,14.624-.025,1.91-1.6,3.194-3.681,3.2q-8.672.014-17.344,0c-1.289,0-2.578.016-3.866,0a3.411,3.411,0,0,1-3.569-3.541q-.037-6.947,0-13.895C284.128,317.2,284.884,316.23,286.836,315.415Zm21.5,16.762V319.661H288.418v12.516ZM305.6,315.314a7.244,7.244,0,0,0-7.584-7.49c-3.907.143-7.229,3.749-6.835,7.49Z" transform="translate(3301.496 3708.995)" fill="#444b54"/>
    <path id="Path_5371" data-name="Path 5371" d="M224.3,481.985c-4.7,0-9.4.01-14.1-.005-1.8-.006-2.881-1.512-2.157-2.983a2.172,2.172,0,0,1,2.134-1.226c2.577.006,5.154,0,7.73,0q10.186,0,20.371,0c1.486,0,2.384.643,2.544,1.787a2.091,2.091,0,0,1-2.312,2.413c-3.482.021-6.964.012-10.446.014q-1.881,0-3.761,0Z" transform="translate(3356.539 3583.344)" fill="#444b54"/>
    <path id="Path_5372" data-name="Path 5372" d="M223.416,247.469q6.373,0,12.747,0c1.579,0,2.581.836,2.565,2.11s-1.006,2.094-2.592,2.094q-12.9,0-25.807-.007a2.154,2.154,0,0,1-2.383-1.6,2.011,2.011,0,0,1,1-2.3,3.711,3.711,0,0,1,1.51-.288C214.778,247.459,219.1,247.468,223.416,247.469Z" transform="translate(3356.488 3749.485)" fill="#444b54"/>
    <path id="Path_5373" data-name="Path 5373" d="M220.257,293.5q4.646,0,9.292,0a5.847,5.847,0,0,1,1.243.1,2.062,2.062,0,0,1-.05,4.038,5.961,5.961,0,0,1-1.141.083q-9.448.007-18.9,0a6.346,6.346,0,0,1-1.143-.074,2.065,2.065,0,0,1-.049-4.062,5.8,5.8,0,0,1,1.14-.085Q215.454,293.492,220.257,293.5Z" transform="translate(3356.512 3716.279)" fill="#444b54"/>
    <path id="Path_5374" data-name="Path 5374" d="M217.016,431.786c2.226,0,4.452-.006,6.678,0,1.5.006,2.453.838,2.436,2.108a2.145,2.145,0,0,1-2.374,2.093q-6.783.025-13.565,0a2.162,2.162,0,0,1-2.341-2.133,2.126,2.126,0,0,1,2.383-2.059c2.261-.015,4.522,0,6.783,0Z" transform="translate(3356.51 3616.519)" fill="#444b54"/>
    <path id="Path_5375" data-name="Path 5375" d="M215.851,389.79c-1.877,0-3.754.018-5.631-.006a2.135,2.135,0,0,1-2.371-2.08,2.168,2.168,0,0,1,2.349-2.126q5.735-.034,11.47,0a2.14,2.14,0,0,1,2.363,2.1,2.116,2.116,0,0,1-2.341,2.1C219.744,389.809,217.8,389.79,215.851,389.79Z" transform="translate(3356.51 3649.865)" fill="#444b54"/>
    <path id="Path_5376" data-name="Path 5376" d="M215.983,343.857c-1.912,0-3.824.011-5.736,0a2.179,2.179,0,0,1-2.393-2.073,2.147,2.147,0,0,1,2.423-2.129q5.684-.016,11.368,0a2.129,2.129,0,0,1,2.389,2.053,2.157,2.157,0,0,1-2.419,2.144c-1.877.014-3.754,0-5.632,0Z" transform="translate(3356.507 3682.99)" fill="#444b54"/>
    <path id="Path_5377" data-name="Path 5377" d="M279.6,523.375a2.04,2.04,0,0,1-2.094,2.1,2.118,2.118,0,0,1-2.1-2.127,2.149,2.149,0,0,1,2.074-2.056A2.065,2.065,0,0,1,279.6,523.375Z" transform="translate(3307.769 3551.952)" fill="#1893f7"/>
    <path id="Path_5378" data-name="Path 5378" d="M399.3,498.485c1.807-1.684,3.537-3.292,5.261-4.907.355-.333.669-.711,1.034-1.032a2.081,2.081,0,0,1,2.919,0,2.121,2.121,0,0,1,.084,2.927c-.13.162-.282.308-.427.457q-3.242,3.326-6.486,6.651c-1.565,1.6-2.48,1.605-4.138.038-.911-.86-1.84-1.7-2.743-2.568-1.067-1.023-1.182-2.186-.338-3.135.859-.965,2.1-.946,3.227.068C398.29,497.516,398.863,498.073,399.3,498.485Z" transform="translate(3222.285 3573.117)" fill="#5dd990"/>
    <path id="Path_5379" data-name="Path 5379" d="M319.5,373.78H299.574V361.264H319.5Zm-7.882-6.312h.009c0-.243.008-.486,0-.728a2.1,2.1,0,1,0-4.195-.02,17.4,17.4,0,0,0,.014,1.768,2.086,2.086,0,0,0,4.168.021C311.638,368.163,311.614,367.815,311.614,367.468Z" transform="translate(3290.34 3667.392)" fill="#f0ecdf"/>
    <path id="Path_5380" data-name="Path 5380" d="M323.841,326.254H309.422c-.394-3.741,2.929-7.348,6.835-7.49A7.244,7.244,0,0,1,323.841,326.254Z" transform="translate(3283.258 3698.055)" fill="#f0ecdf"/>
    <path id="Path_5381" data-name="Path 5381" d="M331.907,375.938c0,.347.024.7,0,1.04a2.086,2.086,0,0,1-4.168-.021,17.424,17.424,0,0,1-.015-1.768,2.1,2.1,0,1,1,4.2.02c.009.242,0,.486,0,.728Z" transform="translate(3270.047 3658.922)" fill="#85d9a7"/>
  </g>
</svg>
