<svg width="14" height="12" viewBox="0 0 14 12" fill="none" xmlns="http://www.w3.org/2000/svg">
<path d="M9.95 9.53333L10.65 8.83333L9 7.18333C9.15556 6.93889 9.27222 6.68889 9.35 6.43333C9.42778 6.17777 9.46667 5.90555 9.46667 5.61666C9.46667 4.82778 9.19722 4.16389 8.65834 3.625C8.11945 3.08611 7.46111 2.81666 6.68334 2.81666C5.90556 2.81666 5.23611 3.08611 4.675 3.625C4.11389 4.16389 3.83334 4.82778 3.83334 5.61666C3.83334 6.41666 4.11389 7.08889 4.675 7.63333C5.23611 8.17777 5.90556 8.45 6.68334 8.45C6.98334 8.45 7.26945 8.40555 7.54167 8.31666C7.81389 8.22778 8.06667 8.08333 8.3 7.88333L9.95 9.53333ZM6.68334 7.45C6.17222 7.45 5.73611 7.27777 5.375 6.93333C5.01389 6.58889 4.83334 6.15 4.83334 5.61666C4.83334 5.09444 5.01389 4.66389 5.375 4.325C5.73611 3.98611 6.17222 3.81666 6.68334 3.81666C7.19445 3.81666 7.61945 3.98611 7.95834 4.325C8.29722 4.66389 8.46667 5.09444 8.46667 5.61666C8.46667 6.15 8.29722 6.58889 7.95834 6.93333C7.61945 7.27777 7.19445 7.45 6.68334 7.45ZM1.33334 11.3333C1.06667 11.3333 0.833336 11.2333 0.633336 11.0333C0.433336 10.8333 0.333336 10.6 0.333336 10.3333V1.66666C0.333336 1.4 0.433336 1.16666 0.633336 0.966664C0.833336 0.766664 1.06667 0.666664 1.33334 0.666664H12.6667C12.9444 0.666664 13.1806 0.766664 13.375 0.966664C13.5694 1.16666 13.6667 1.4 13.6667 1.66666V10.3333C13.6667 10.6 13.5694 10.8333 13.375 11.0333C13.1806 11.2333 12.9444 11.3333 12.6667 11.3333H1.33334ZM1.33334 10.3333V1.66666V10.3333ZM1.33334 10.3333H12.6667V1.66666H1.33334V10.3333Z" fill="white"/>
</svg>
